<svg width="1024" height="1024" viewBox="0 0 1024 1024" fill="none" xmlns="http://www.w3.org/2000/svg">
<path d="M96.4814 264.206L214.784 485.06C214.784 485.06 219.684 502.56 201.484 499.76C201.484 499.76 107.086 416.279 50.6302 444.109C-23.9216 480.86 -12.0213 649.563 59.3803 675.114C115.159 695.074 195.533 632.063 195.533 632.063C214.784 625.763 214.084 645.713 214.084 645.713L97.5314 854.668L333.087 974.02L414.988 785.366C441.589 811.617 578.442 811.617 611.692 785.366L692.544 963.17L925.299 847.667L814.696 654.113C809.446 635.213 814.696 631.013 825.197 631.013C874.548 657.263 935.449 692.264 980.95 668.114C1023.3 654.113 1052.7 492.06 978.5 456.709C952.249 438.859 900.448 448.659 822.747 492.06C817.774 490.268 814.696 487.51 814.696 482.61L914.449 277.856L680.994 157.803L608.542 337.357L509.49 50L409.038 332.456L325.037 157.803L96.4814 264.206Z" fill="url(#paint0_linear_6_13)"/>
<defs>
<linearGradient id="paint0_linear_6_13" x1="-1.11873e-05" y1="974.02" x2="1024.12" y2="49.9999" gradientUnits="userSpaceOnUse">
<stop stop-color="#00F261"/>
<stop offset="0.896093" stop-color="#0062FF"/>
</linearGradient>
</defs>
</svg>
